PathFileType	4	(X/Y/Z)	RBDS027\RBDS027runT45.trc
DataRate	CameraRate	NumFrames	NumMarkers	Units	OrigDataRate	OrigDataStartFrame	OrigNumFrames
150.000000	150.000000	4	33	mm	150.000000	2812	4500
Frame#	Time	L.ASIS			L.Heel.Bottom			L.Heel.Lateral			L.Heel.Top			L.Iliac.Crest			L.MT1			L.MT5			L.PSIS			L.Shank.Bottom.Lateral			L.Shank.Bottom.Medial			L.Shank.Top.Lateral			L.Shank.Top.Medial			L.Thigh.Bottom.Lateral			L.Thigh.Bottom.Medial			L.Thigh.Top.Lateral			L.Thigh.Top.Medial			R.ASIS			R.ASY			R.Heel.Bottom			R.Heel.Lateral			R.Heel.Top			R.Iliac.Crest			R.MT1			R.MT5			R.PSIS			R.Shank.Bottom.Lateral			R.Shank.Bottom.Medial			R.Shank.Top.Lateral			R.Shank.Top.Medial			R.Thigh.Bottom.Lateral			R.Thigh.Bottom.Medial			R.Thigh.Top.Lateral			R.Thigh.Top.Medial			
		X1	Y1	Z1	X2	Y2	Z2	X3	Y3	Z3	X4	Y4	Z4	X5	Y5	Z5	X6	Y6	Z6	X7	Y7	Z7	X8	Y8	Z8	X9	Y9	Z9	X10	Y10	Z10	X11	Y11	Z11	X12	Y12	Z12	X13	Y13	Z13	X14	Y14	Z14	X15	Y15	Z15	X16	Y16	Z16	X17	Y17	Z17	X18	Y18	Z18	X19	Y19	Z19	X20	Y20	Z20	X21	Y21	Z21	X22	Y22	Z22	X23	Y23	Z23	X24	Y24	Z24	X25	Y25	Z25	X26	Y26	Z26	X27	Y27	Z27	X28	Y28	Z28	X29	Y29	Z29	X30	Y30	Z30	X31	Y31	Z31	X32	Y32	Z32	X33	Y33	Z33	

2813	18.74666666666667	2094.97119637539	852.6775897552701	855.7587735616014	1813.063146709729	416.0663159061972	919.98234614764	1842.54487817811	388.3178404470656	878.2848107740472	1863.240796505419	415.0648733942601	923.7128459898445	2041.610221610572	936.3103055501246	825.6044614272087	1877.961842436076	210.1581531908086	972.7301972461524	1869.048608896116	238.4783540604194	863.4435072762436	1935.775333957133	891.822373494881	937.6482596570552	1954.435631863303	380.4393202056749	868.294226887677	1938.493636584106	419.382839421644	904.8242036335043	2020.757648811923	423.7632750538028	853.2428471222323	2007.844293011503	459.3578324350291	891.3780879390089	2184.169070571187	538.3488444523891	826.6924986233869	2147.083850360108	511.5643951795172	881.1110342957188	2106.218535779936	614.2767811861102	811.7233613564979	2068.428657268493	587.2691637601816	862.3242283961724	2093.311102655804	861.3858741658438	1118.827735706924	1762.524224848043	76.02277795612035	1038.756055185992	1581.422067088698	113.569874617823	1016.30884888507	1612.746002378347	115.025241615479	1061.818856429496	1610.564119056667	147.7693963669889	1018.470057914064	2057.589496948618	939.792320464501	1137.866085487508	1770.391360517852	20.45669547451879	987.3932580113175	1732.478327494648	39.36430435290514	1100.358904862763	1937.845427659721	901.3119662591801	1032.959448537164	1704.176213205678	191.6854653293099	1076.111424611369	1684.899211701222	220.9813068901668	1039.543868190393	1747.784726552937	258.4750586958698	1104.807202760192	1726.003464974311	285.9242605671134	1064.551136963195	1940.886692890814	504.4796825444608	1142.418184120391	1881.899648494093	514.3360090727775	1100.844295452911	1942.507187334789	612.5689811027379	1159.469583255624	1887.103054012392	622.881677231082	1118.3379707282	
2814	18.75333333333333	2096.964768991178	859.5943249190523	856.1428019841459	1825.255700399342	387.1854404001369	920.5043641843833	1857.587690552828	362.8655615051357	878.6648819995446	1875.351566660894	391.3719753590858	924.086210284099	2042.997830290755	942.6951144856282	825.6792630990744	1911.001552538709	188.2026934973638	972.0596645884661	1899.338826567936	216.332898338537	862.9304966879263	1937.670027818399	896.756581275579	937.6588499022715	1970.344305828215	365.7702595549811	869.0706833608001	1950.811258809736	403.0116651808799	905.6058475602271	2032.561913406485	415.0919475607642	854.5234962444173	2016.40922001614	449.1671655656085	892.7869039767795	2192.507831319606	548.2430298197065	828.3393766545165	2154.300328947829	519.9436691826611	881.7408239784868	2112.683059093378	622.7853286337328	811.882320780601	2074.606358132373	594.947515025983	861.7383000628406	2096.100156709991	863.8272887931303	1118.031927973432	1739.379607347142	77.10475257426783	1040.550926027772	1562.731287220026	129.324453450978	1016.088577445153	1593.292759253509	127.4180459323556	1061.950868334314	1594.272391046614	160.8918855860411	1019.32303647456	2064.268495570185	943.4936918884446	1136.624678903642	1742.739639021447	21.68857874795057	987.8176506151809	1705.287601516731	41.70639407217984	1100.563875350189	1940.536914955261	905.4567837556798	1033.530193165294	1685.025835257142	200.9079154610238	1077.392629684466	1666.998146070757	229.3477828053017	1039.705247681154	1728.247303263571	268.1478325207476	1105.537637549206	1707.563356150792	294.7602428104699	1064.30174362637	1926.823437667989	513.0554185468022	1143.297250570653	1869.574711990538	526.2232797285599	1100.324531173109	1934.626105021878	620.8246564775524	1160.068333479373	1880.843611964981	634.2490044393001	1117.558890670575	
2815	18.76	2099.204211542578	866.4583191101892	856.7449318924365	1840.01643381769	357.3765758294115	921.1891495211585	1874.722893752356	336.7565306183185	879.1812453504175	1889.484350993983	366.7084339876898	924.600210179921	2044.637370287402	949.1477074290916	825.7096722333482	1945.79070279708	167.4488689901557	971.3025251562033	1931.247503179058	195.1373763788859	862.4073628330755	1939.833929986693	901.7876358212438	937.539545337914	1987.208336933529	350.7727909008104	869.8950497696924	1964.371638654035	385.806544025163	906.6831105689381	2044.732970558409	405.7857309224551	855.995923757073	2025.618983844082	437.8568393514507	894.5947237830155	2199.971293888423	557.7703274503184	829.8614316011584	2160.534050960786	528.1406173937283	881.9758184078719	2118.818370536084	631.1311106770381	811.8208764383796	2080.190847496829	602.473611139315	860.6482936464688	2098.936273191953	866.0693092523086	1117.252363023518	1717.196691453363	78.82020902132872	1042.572573035855	1546.195462370424	145.8953495022262	1015.891515158933	1575.609844824177	140.5941060633132	1062.120624761781	1580.04125299994	174.5543914568666	1020.296971233038	2071.110049948294	947.2555811406339	1135.158700255406	1716.202510060303	23.76441557955763	988.451783846882	1678.874085820366	44.8995173608095	1100.835833749392	1943.430881059444	909.6912326513871	1033.99520099161	1667.298302832299	210.4784451453132	1078.891958234776	1650.609977479707	237.9009087978278	1039.962453356851	1709.954187461332	278.3154220135129	1106.380208580974	1690.431410321263	303.9246690286741	1064.067368017563	1913.417332522658	522.3269402068729	1144.379524378163	1858.263554964883	538.4800632335763	1099.76271089176	1927.166089938873	629.5350450559419	1160.72707902772	1875.371827771266	645.6934869588223	1116.624017466929	
2816	18.76666666666667	2101.57862610429	873.1146258902139	857.505517589554	1857.457082076837	326.9488725613242	922.0043639782891	1894.017333046404	310.2397246869712	879.8046874636862	1905.756138216356	341.3235535083001	925.2560450825276	2046.38666343794	955.5386989985305	825.685870368288	1982.231494960751	148.1562646823136	970.4411163846769	1964.674700316254	175.0870143417171	861.8516308716531	1942.235531197849	906.8648940225482	937.3811943554477	2005.030667311901	335.5365261154329	870.7543998955737	1979.270179885812	367.9260562337484	908.0301010739264	2057.305744170233	395.8491656949871	857.619465145027	2035.588602625168	425.5017145677178	896.7457608053337	2206.555330114596	566.7744454472356	831.2894274277172	2165.807779439474	535.9334638137949	881.8083352881125	2124.584565274357	639.1851577879527	811.6478080379522	2085.16869888512	609.6885787096788	859.1593946917303	2101.792051614275	868.042195520924	1116.491265381109	1695.955544272586	81.38523979702568	1044.830400195586	1531.678842376012	163.0029011365181	1015.708055992574	1559.564897367471	154.4037759416011	1062.322848154718	1567.643882381572	188.5717688636027	1021.371037372233	2077.979248713244	951.0194925306903	1133.53478563916	1690.921791900319	26.85095333853699	989.365676916241	1653.329319652413	49.11374190170951	1101.19879100547	1946.496041327491	913.9990032478091	1034.414619483522	1650.906308742668	220.3341723947653	1080.572611493383	1635.606123745368	246.6220016789457	1040.336010261815	1692.898642326039	288.8618358822884	1107.306897778127	1674.564770274796	313.3491995567907	1063.868399110137	1900.715575111497	532.079512659102	1145.558768209052	1847.921500681729	550.8182265446823	1099.123761523811	1920.092585229549	638.5317045898271	1161.33095829279	1870.591855089599	656.9828729855823	1115.46517098738	
